<?xml version="1.0" encoding="UTF-8"?>
<svg width="1200" height="900" viewBox="0 0 1200 900" xmlns="http://www.w3.org/2000/svg">
  <defs>
    <linearGradient id="bg" x1="0%" y1="0%" x2="100%" y2="100%">
      <stop offset="0%" stop-color="#f5efe3"/>
      <stop offset="50%" stop-color="#f6f8fb"/>
      <stop offset="100%" stop-color="#d7e3f5"/>
    </linearGradient>
    <linearGradient id="table" x1="0%" y1="0%" x2="100%" y2="0%">
      <stop offset="0%" stop-color="#c9a74d"/>
      <stop offset="100%" stop-color="#b5943b"/>
    </linearGradient>
  </defs>
  <rect width="1200" height="900" fill="url(#bg)"/>
  <g fill="none" stroke="#e1d5c2" stroke-width="6">
    <path d="M80 260 L1120 180"/>
    <path d="M120 360 L1080 300"/>
    <path d="M160 460 L1040 420"/>
  </g>
  <g>
    <ellipse cx="600" cy="570" rx="420" ry="120" fill="url(#table)"/>
    <ellipse cx="600" cy="540" rx="420" ry="120" fill="url(#table)" opacity="0.8"/>
  </g>
  <g>
    <rect x="310" y="320" width="160" height="220" rx="20" fill="#ffffff" opacity="0.9"/>
    <rect x="520" y="300" width="160" height="260" rx="20" fill="#ffffff" opacity="0.9"/>
    <rect x="730" y="330" width="160" height="210" rx="20" fill="#ffffff" opacity="0.9"/>
  </g>
  <g fill="#c9a74d">
    <circle cx="440" cy="530" r="22"/>
    <circle cx="600" cy="540" r="22"/>
    <circle cx="760" cy="520" r="22"/>
  </g>
  <g fill="#ffffff" opacity="0.85">
    <circle cx="420" cy="200" r="18"/>
    <circle cx="520" cy="160" r="12"/>
    <circle cx="830" cy="220" r="16"/>
  </g>
  <g fill="#ffffff" opacity="0.7">
    <rect x="360" y="360" width="60" height="120" rx="10"/>
    <rect x="570" y="340" width="60" height="150" rx="10"/>
    <rect x="780" y="370" width="60" height="110" rx="10"/>
  </g>
  <text x="600" y="720" text-anchor="middle" fill="#2f3a4c" font-family="Raleway, Arial, sans-serif" font-size="52">
    Private Dining Experience
  </text>
</svg>
